<svg version="1.1" xmlns="http://www.w3.org/2000/svg" xmlns:xlink="http://www.w3.org/1999/xlink" x="0px" y="0px"
	 width="240px" height="240px" viewBox="0 0 240 240" enable-background="new 0 0 240 240" xml:space="preserve">
<path d="M134.8,120l48.6-48.6c2-1.9,2.1-5.2,0.2-7.2c0,0-0.1-0.1-0.2-0.2l-7.4-7.4c-1.9-2-5.2-2.1-7.2-0.2c0,0-0.1,0.1-0.2,0.2
	L120,105.2L71.4,56.6c-1.9-2-5.2-2.1-7.2-0.2c0,0-0.1,0.1-0.2,0.2L56.6,64c-2,1.9-2.1,5.2-0.2,7.2c0,0,0.1,0.1,0.2,0.2l48.6,48.7
	l-48.6,48.6c-2,1.9-2.1,5.2-0.2,7.2c0,0,0.1,0.1,0.2,0.2l7.4,7.4c1.9,2,5.2,2.1,7.2,0.2c0,0,0.1-0.1,0.2-0.2l48.7-48.6l48.6,48.6
	c1.9,2,5.2,2.1,7.2,0.2c0,0,0.1-0.1,0.2-0.2l7.4-7.4c2-1.9,2.1-5.2,0.2-7.2c0,0-0.1-0.1-0.2-0.2L134.8,120z"/>
</svg>
